<mxfile host="app.diagrams.net" modified="2022-07-12T02:19:24.549Z" agent="5.0 (Macintosh; Intel Mac OS X 10_15_7) AppleWebKit/537.36 (KHTML, like Gecko) Chrome/103.0.0.0 Safari/537.36" etag="-BWhJoDyFX-lxobZfQb3" version="17.2.4" type="github">
  <diagram id="qz-bx2vlPSdnmDnBw6mM" name="Page-1">
    <mxGraphModel dx="2125" dy="722" grid="1" gridSize="10" guides="1" tooltips="1" connect="1" arrows="1" fold="1" page="1" pageScale="1" pageWidth="827" pageHeight="1169" math="0" shadow="0">
      <root>
        <mxCell id="0" />
        <mxCell id="1" parent="0" />
        <mxCell id="uzhMhEkl0-CtjDpe7Rjm-6" value="" style="edgeStyle=orthogonalEdgeStyle;rounded=0;orthogonalLoop=1;jettySize=auto;html=1;" edge="1" parent="1" source="uzhMhEkl0-CtjDpe7Rjm-1" target="uzhMhEkl0-CtjDpe7Rjm-2">
          <mxGeometry relative="1" as="geometry" />
        </mxCell>
        <mxCell id="uzhMhEkl0-CtjDpe7Rjm-1" value="Format Begin" style="rounded=1;whiteSpace=wrap;html=1;" vertex="1" parent="1">
          <mxGeometry x="-10" y="170" width="120" height="60" as="geometry" />
        </mxCell>
        <mxCell id="uzhMhEkl0-CtjDpe7Rjm-10" value="" style="edgeStyle=orthogonalEdgeStyle;rounded=0;orthogonalLoop=1;jettySize=auto;html=1;" edge="1" parent="1" source="uzhMhEkl0-CtjDpe7Rjm-2" target="uzhMhEkl0-CtjDpe7Rjm-8">
          <mxGeometry relative="1" as="geometry" />
        </mxCell>
        <mxCell id="uzhMhEkl0-CtjDpe7Rjm-13" value="" style="edgeStyle=orthogonalEdgeStyle;rounded=0;orthogonalLoop=1;jettySize=auto;html=1;" edge="1" parent="1" source="uzhMhEkl0-CtjDpe7Rjm-2" target="uzhMhEkl0-CtjDpe7Rjm-3">
          <mxGeometry relative="1" as="geometry" />
        </mxCell>
        <mxCell id="uzhMhEkl0-CtjDpe7Rjm-2" value="start with &#39;+&#39; , format successfully?" style="rhombus;whiteSpace=wrap;html=1;" vertex="1" parent="1">
          <mxGeometry x="210" y="130" width="146" height="140" as="geometry" />
        </mxCell>
        <mxCell id="uzhMhEkl0-CtjDpe7Rjm-17" style="edgeStyle=orthogonalEdgeStyle;rounded=0;orthogonalLoop=1;jettySize=auto;html=1;" edge="1" parent="1" source="uzhMhEkl0-CtjDpe7Rjm-3">
          <mxGeometry relative="1" as="geometry">
            <mxPoint x="290" y="330" as="targetPoint" />
            <Array as="points">
              <mxPoint x="493" y="330" />
            </Array>
          </mxGeometry>
        </mxCell>
        <mxCell id="uzhMhEkl0-CtjDpe7Rjm-18" value="" style="edgeStyle=orthogonalEdgeStyle;rounded=0;orthogonalLoop=1;jettySize=auto;html=1;" edge="1" parent="1" source="uzhMhEkl0-CtjDpe7Rjm-3" target="uzhMhEkl0-CtjDpe7Rjm-4">
          <mxGeometry relative="1" as="geometry" />
        </mxCell>
        <mxCell id="uzhMhEkl0-CtjDpe7Rjm-3" value="format by app region&lt;br&gt;successfully?" style="rhombus;whiteSpace=wrap;html=1;" vertex="1" parent="1">
          <mxGeometry x="420" y="130" width="146" height="140" as="geometry" />
        </mxCell>
        <mxCell id="uzhMhEkl0-CtjDpe7Rjm-20" style="edgeStyle=orthogonalEdgeStyle;rounded=0;orthogonalLoop=1;jettySize=auto;html=1;exitX=0.5;exitY=1;exitDx=0;exitDy=0;endArrow=none;endFill=0;" edge="1" parent="1" source="uzhMhEkl0-CtjDpe7Rjm-4">
          <mxGeometry relative="1" as="geometry">
            <mxPoint x="290" y="330" as="targetPoint" />
            <Array as="points">
              <mxPoint x="600" y="270" />
              <mxPoint x="600" y="330" />
              <mxPoint x="290" y="330" />
            </Array>
          </mxGeometry>
        </mxCell>
        <mxCell id="uzhMhEkl0-CtjDpe7Rjm-23" style="edgeStyle=orthogonalEdgeStyle;rounded=0;orthogonalLoop=1;jettySize=auto;html=1;" edge="1" parent="1" source="uzhMhEkl0-CtjDpe7Rjm-4">
          <mxGeometry relative="1" as="geometry">
            <mxPoint x="810" y="310" as="targetPoint" />
          </mxGeometry>
        </mxCell>
        <mxCell id="uzhMhEkl0-CtjDpe7Rjm-4" value="start with 0 ,format successfully&lt;br&gt;?" style="rhombus;whiteSpace=wrap;html=1;" vertex="1" parent="1">
          <mxGeometry x="640" y="130" width="150" height="140" as="geometry" />
        </mxCell>
        <mxCell id="uzhMhEkl0-CtjDpe7Rjm-25" style="edgeStyle=orthogonalEdgeStyle;rounded=0;orthogonalLoop=1;jettySize=auto;html=1;endArrow=none;endFill=0;" edge="1" parent="1" source="uzhMhEkl0-CtjDpe7Rjm-5">
          <mxGeometry relative="1" as="geometry">
            <mxPoint x="460" y="330" as="targetPoint" />
          </mxGeometry>
        </mxCell>
        <mxCell id="uzhMhEkl0-CtjDpe7Rjm-33" style="edgeStyle=orthogonalEdgeStyle;rounded=0;orthogonalLoop=1;jettySize=auto;html=1;endArrow=classic;endFill=1;" edge="1" parent="1" source="uzhMhEkl0-CtjDpe7Rjm-5" target="uzhMhEkl0-CtjDpe7Rjm-29">
          <mxGeometry relative="1" as="geometry" />
        </mxCell>
        <mxCell id="uzhMhEkl0-CtjDpe7Rjm-5" value="assume start with &#39;+&#39;,&lt;br&gt;format successfully?" style="rhombus;whiteSpace=wrap;html=1;" vertex="1" parent="1">
          <mxGeometry x="740" y="310" width="146" height="140" as="geometry" />
        </mxCell>
        <mxCell id="uzhMhEkl0-CtjDpe7Rjm-8" value="End" style="rounded=1;whiteSpace=wrap;html=1;" vertex="1" parent="1">
          <mxGeometry x="223" y="370" width="120" height="60" as="geometry" />
        </mxCell>
        <mxCell id="uzhMhEkl0-CtjDpe7Rjm-12" value="Y" style="text;html=1;align=center;verticalAlign=middle;resizable=0;points=[];autosize=1;strokeColor=none;fillColor=none;" vertex="1" parent="1">
          <mxGeometry x="300" y="300" width="20" height="20" as="geometry" />
        </mxCell>
        <mxCell id="uzhMhEkl0-CtjDpe7Rjm-14" value="N" style="text;html=1;align=center;verticalAlign=middle;resizable=0;points=[];autosize=1;strokeColor=none;fillColor=none;" vertex="1" parent="1">
          <mxGeometry x="370" y="170" width="20" height="20" as="geometry" />
        </mxCell>
        <mxCell id="uzhMhEkl0-CtjDpe7Rjm-19" value="N" style="text;html=1;align=center;verticalAlign=middle;resizable=0;points=[];autosize=1;strokeColor=none;fillColor=none;" vertex="1" parent="1">
          <mxGeometry x="600" y="170" width="20" height="20" as="geometry" />
        </mxCell>
        <mxCell id="uzhMhEkl0-CtjDpe7Rjm-24" value="N" style="text;html=1;align=center;verticalAlign=middle;resizable=0;points=[];autosize=1;strokeColor=none;fillColor=none;" vertex="1" parent="1">
          <mxGeometry x="820" y="230" width="20" height="20" as="geometry" />
        </mxCell>
        <mxCell id="uzhMhEkl0-CtjDpe7Rjm-26" value="Y" style="text;html=1;align=center;verticalAlign=middle;resizable=0;points=[];autosize=1;strokeColor=none;fillColor=none;" vertex="1" parent="1">
          <mxGeometry x="620" y="390" width="20" height="20" as="geometry" />
        </mxCell>
        <mxCell id="uzhMhEkl0-CtjDpe7Rjm-27" value="Y" style="text;html=1;align=center;verticalAlign=middle;resizable=0;points=[];autosize=1;strokeColor=none;fillColor=none;" vertex="1" parent="1">
          <mxGeometry x="640" y="270" width="20" height="20" as="geometry" />
        </mxCell>
        <mxCell id="uzhMhEkl0-CtjDpe7Rjm-28" value="Y" style="text;html=1;align=center;verticalAlign=middle;resizable=0;points=[];autosize=1;strokeColor=none;fillColor=none;" vertex="1" parent="1">
          <mxGeometry x="470" y="290" width="20" height="20" as="geometry" />
        </mxCell>
        <mxCell id="uzhMhEkl0-CtjDpe7Rjm-35" style="edgeStyle=orthogonalEdgeStyle;rounded=0;orthogonalLoop=1;jettySize=auto;html=1;endArrow=none;endFill=0;" edge="1" parent="1" source="uzhMhEkl0-CtjDpe7Rjm-29">
          <mxGeometry relative="1" as="geometry">
            <mxPoint x="600" y="380" as="targetPoint" />
          </mxGeometry>
        </mxCell>
        <mxCell id="uzhMhEkl0-CtjDpe7Rjm-29" value="format by SIM regions&lt;br&gt;successfully?" style="rhombus;whiteSpace=wrap;html=1;" vertex="1" parent="1">
          <mxGeometry x="740" y="520" width="146" height="140" as="geometry" />
        </mxCell>
        <mxCell id="uzhMhEkl0-CtjDpe7Rjm-34" value="N" style="text;html=1;align=center;verticalAlign=middle;resizable=0;points=[];autosize=1;strokeColor=none;fillColor=none;" vertex="1" parent="1">
          <mxGeometry x="770" y="470" width="20" height="20" as="geometry" />
        </mxCell>
        <mxCell id="uzhMhEkl0-CtjDpe7Rjm-36" value="Y" style="text;html=1;align=center;verticalAlign=middle;resizable=0;points=[];autosize=1;strokeColor=none;fillColor=none;" vertex="1" parent="1">
          <mxGeometry x="640" y="560" width="20" height="20" as="geometry" />
        </mxCell>
        <mxCell id="uzhMhEkl0-CtjDpe7Rjm-37" value="Y" style="text;html=1;align=center;verticalAlign=middle;resizable=0;points=[];autosize=1;strokeColor=none;fillColor=none;" vertex="1" parent="1">
          <mxGeometry x="250" y="270" width="20" height="20" as="geometry" />
        </mxCell>
        <mxCell id="uzhMhEkl0-CtjDpe7Rjm-56" value="" style="edgeStyle=orthogonalEdgeStyle;rounded=0;orthogonalLoop=1;jettySize=auto;html=1;endArrow=classic;endFill=1;" edge="1" parent="1" source="uzhMhEkl0-CtjDpe7Rjm-39" target="uzhMhEkl0-CtjDpe7Rjm-55">
          <mxGeometry relative="1" as="geometry" />
        </mxCell>
        <mxCell id="uzhMhEkl0-CtjDpe7Rjm-39" value="format begin" style="rounded=1;whiteSpace=wrap;html=1;" vertex="1" parent="1">
          <mxGeometry x="-200" y="800" width="120" height="60" as="geometry" />
        </mxCell>
        <mxCell id="uzhMhEkl0-CtjDpe7Rjm-45" value="" style="edgeStyle=orthogonalEdgeStyle;rounded=0;orthogonalLoop=1;jettySize=auto;html=1;endArrow=classic;endFill=1;" edge="1" parent="1" source="uzhMhEkl0-CtjDpe7Rjm-40" target="uzhMhEkl0-CtjDpe7Rjm-42">
          <mxGeometry relative="1" as="geometry" />
        </mxCell>
        <mxCell id="uzhMhEkl0-CtjDpe7Rjm-48" style="edgeStyle=orthogonalEdgeStyle;rounded=0;orthogonalLoop=1;jettySize=auto;html=1;entryX=0.5;entryY=1;entryDx=0;entryDy=0;endArrow=classic;endFill=1;" edge="1" parent="1" source="uzhMhEkl0-CtjDpe7Rjm-40" target="uzhMhEkl0-CtjDpe7Rjm-44">
          <mxGeometry relative="1" as="geometry">
            <Array as="points">
              <mxPoint x="225" y="970" />
              <mxPoint x="830" y="970" />
            </Array>
          </mxGeometry>
        </mxCell>
        <mxCell id="uzhMhEkl0-CtjDpe7Rjm-40" value="format with app region successfully?" style="rhombus;whiteSpace=wrap;html=1;" vertex="1" parent="1">
          <mxGeometry x="150" y="760" width="150" height="140" as="geometry" />
        </mxCell>
        <mxCell id="uzhMhEkl0-CtjDpe7Rjm-46" value="" style="edgeStyle=orthogonalEdgeStyle;rounded=0;orthogonalLoop=1;jettySize=auto;html=1;endArrow=classic;endFill=1;" edge="1" parent="1" source="uzhMhEkl0-CtjDpe7Rjm-42" target="uzhMhEkl0-CtjDpe7Rjm-43">
          <mxGeometry relative="1" as="geometry" />
        </mxCell>
        <mxCell id="uzhMhEkl0-CtjDpe7Rjm-49" style="edgeStyle=orthogonalEdgeStyle;rounded=0;orthogonalLoop=1;jettySize=auto;html=1;endArrow=classic;endFill=1;" edge="1" parent="1" source="uzhMhEkl0-CtjDpe7Rjm-42">
          <mxGeometry relative="1" as="geometry">
            <mxPoint x="433" y="970" as="targetPoint" />
          </mxGeometry>
        </mxCell>
        <mxCell id="uzhMhEkl0-CtjDpe7Rjm-42" value="format with SIM card region successfully?" style="rhombus;whiteSpace=wrap;html=1;" vertex="1" parent="1">
          <mxGeometry x="360" y="760" width="146" height="140" as="geometry" />
        </mxCell>
        <mxCell id="uzhMhEkl0-CtjDpe7Rjm-47" value="" style="edgeStyle=orthogonalEdgeStyle;rounded=0;orthogonalLoop=1;jettySize=auto;html=1;endArrow=classic;endFill=1;" edge="1" parent="1" source="uzhMhEkl0-CtjDpe7Rjm-43" target="uzhMhEkl0-CtjDpe7Rjm-44">
          <mxGeometry relative="1" as="geometry" />
        </mxCell>
        <mxCell id="uzhMhEkl0-CtjDpe7Rjm-50" style="edgeStyle=orthogonalEdgeStyle;rounded=0;orthogonalLoop=1;jettySize=auto;html=1;endArrow=classic;endFill=1;" edge="1" parent="1" source="uzhMhEkl0-CtjDpe7Rjm-43">
          <mxGeometry relative="1" as="geometry">
            <mxPoint x="630" y="970" as="targetPoint" />
          </mxGeometry>
        </mxCell>
        <mxCell id="uzhMhEkl0-CtjDpe7Rjm-43" value="format with other region successfully?" style="rhombus;whiteSpace=wrap;html=1;" vertex="1" parent="1">
          <mxGeometry x="557" y="760" width="146" height="140" as="geometry" />
        </mxCell>
        <mxCell id="uzhMhEkl0-CtjDpe7Rjm-44" value="end" style="rounded=1;whiteSpace=wrap;html=1;" vertex="1" parent="1">
          <mxGeometry x="770" y="800" width="120" height="60" as="geometry" />
        </mxCell>
        <mxCell id="uzhMhEkl0-CtjDpe7Rjm-51" value="Y" style="text;html=1;align=center;verticalAlign=middle;resizable=0;points=[];autosize=1;strokeColor=none;fillColor=none;" vertex="1" parent="1">
          <mxGeometry x="470" y="970" width="20" height="20" as="geometry" />
        </mxCell>
        <mxCell id="uzhMhEkl0-CtjDpe7Rjm-52" value="N" style="text;html=1;align=center;verticalAlign=middle;resizable=0;points=[];autosize=1;strokeColor=none;fillColor=none;" vertex="1" parent="1">
          <mxGeometry x="320" y="800" width="20" height="20" as="geometry" />
        </mxCell>
        <mxCell id="uzhMhEkl0-CtjDpe7Rjm-53" value="N" style="text;html=1;align=center;verticalAlign=middle;resizable=0;points=[];autosize=1;strokeColor=none;fillColor=none;" vertex="1" parent="1">
          <mxGeometry x="520" y="800" width="20" height="20" as="geometry" />
        </mxCell>
        <mxCell id="uzhMhEkl0-CtjDpe7Rjm-54" value="N" style="text;html=1;align=center;verticalAlign=middle;resizable=0;points=[];autosize=1;strokeColor=none;fillColor=none;" vertex="1" parent="1">
          <mxGeometry x="720" y="800" width="20" height="20" as="geometry" />
        </mxCell>
        <mxCell id="uzhMhEkl0-CtjDpe7Rjm-57" value="" style="edgeStyle=orthogonalEdgeStyle;rounded=0;orthogonalLoop=1;jettySize=auto;html=1;endArrow=classic;endFill=1;" edge="1" parent="1" source="uzhMhEkl0-CtjDpe7Rjm-55" target="uzhMhEkl0-CtjDpe7Rjm-40">
          <mxGeometry relative="1" as="geometry" />
        </mxCell>
        <mxCell id="uzhMhEkl0-CtjDpe7Rjm-59" style="edgeStyle=orthogonalEdgeStyle;rounded=0;orthogonalLoop=1;jettySize=auto;html=1;endArrow=classic;endFill=1;" edge="1" parent="1" source="uzhMhEkl0-CtjDpe7Rjm-55">
          <mxGeometry relative="1" as="geometry">
            <mxPoint x="230" y="970" as="targetPoint" />
            <Array as="points">
              <mxPoint x="45" y="970" />
              <mxPoint x="220" y="970" />
            </Array>
          </mxGeometry>
        </mxCell>
        <mxCell id="uzhMhEkl0-CtjDpe7Rjm-55" value="start with &#39;00&#39;?" style="rhombus;whiteSpace=wrap;html=1;" vertex="1" parent="1">
          <mxGeometry x="-30" y="760" width="150" height="140" as="geometry" />
        </mxCell>
        <mxCell id="uzhMhEkl0-CtjDpe7Rjm-58" value="N" style="text;html=1;align=center;verticalAlign=middle;resizable=0;points=[];autosize=1;strokeColor=none;fillColor=none;" vertex="1" parent="1">
          <mxGeometry x="120" y="800" width="20" height="20" as="geometry" />
        </mxCell>
        <mxCell id="uzhMhEkl0-CtjDpe7Rjm-60" value="just return" style="text;html=1;align=center;verticalAlign=middle;resizable=0;points=[];autosize=1;strokeColor=none;fillColor=none;" vertex="1" parent="1">
          <mxGeometry x="-25" y="920" width="70" height="20" as="geometry" />
        </mxCell>
      </root>
    </mxGraphModel>
  </diagram>
</mxfile>
